inDegrees=no
num_controls=7
num_derivatives=13
num_iterations=126
num_multipliers=7
num_parameters=0
num_slacks=7
num_states=26
objective=0.476919
objective_accelerations=0.044659
objective_balance=0.003660
objective_effort=0.040776
objective_height=0.382164
objective_ligament=0.005660
solver_duration=1723.033424
status=Solve_Succeeded
success=true
DataType=double
version=3
OpenSimVersion=4.5
endheader
time	/jointset/ground_pelvis/pelvis_tilt/value	/jointset/ground_pelvis/pelvis_tx/value	/jointset/ground_pelvis/pelvis_ty/value	/jointset/hip_l/hip_flexion_l/value	/jointset/hip_l/hip_adduction_l/value	/jointset/hip_l/hip_rotation_l/value	/jointset/back/lumbar_extension/value	/jointset/patellofemoral_l/patellar_flexion_l/value	/jointset/knee_l/knee_flexion_l/value	/jointset/knee_l/knee_adduction_l/value	/jointset/knee_l/knee_rotation_l/value	/jointset/ankle_l/ankle_angle_l/value	/jointset/subtalar_l/subtalar_angle_l/value	/jointset/ground_pelvis/pelvis_tilt/speed	/jointset/ground_pelvis/pelvis_tx/speed	/jointset/ground_pelvis/pelvis_ty/speed	/jointset/hip_l/hip_flexion_l/speed	/jointset/hip_l/hip_adduction_l/speed	/jointset/hip_l/hip_rotation_l/speed	/jointset/back/lumbar_extension/speed	/jointset/patellofemoral_l/patellar_flexion_l/speed	/jointset/knee_l/knee_flexion_l/speed	/jointset/knee_l/knee_adduction_l/speed	/jointset/knee_l/knee_rotation_l/speed	/jointset/ankle_l/ankle_angle_l/speed	/jointset/subtalar_l/subtalar_angle_l/speed	/forceset/tau_hip_flexion_l	/forceset/tau_hip_adduction_l	/forceset/tau_hip_rotation_l	/forceset/tau_knee_flexion_l	/forceset/tau_ankle_angle_l	/forceset/tau_subtalar_angle_l	/forceset/tau_lumbar_extension	lambda_cid13_p0	lambda_cid13_p1	lambda_cid13_p2	lambda_cid13_p3	lambda_cid13_p4	lambda_cid13_p5	lambda_cid14_p0	/jointset/ground_pelvis/pelvis_tilt/accel	/jointset/ground_pelvis/pelvis_tx/accel	/jointset/ground_pelvis/pelvis_ty/accel	/jointset/hip_l/hip_flexion_l/accel	/jointset/hip_l/hip_adduction_l/accel	/jointset/hip_l/hip_rotation_l/accel	/jointset/back/lumbar_extension/accel	/jointset/patellofemoral_l/patellar_flexion_l/accel	/jointset/knee_l/knee_flexion_l/accel	/jointset/knee_l/knee_adduction_l/accel	/jointset/knee_l/knee_rotation_l/accel	/jointset/ankle_l/ankle_angle_l/accel	/jointset/subtalar_l/subtalar_angle_l/accel	gamma_cid13_p0	gamma_cid13_p1	gamma_cid13_p2	gamma_cid13_p3	gamma_cid13_p4	gamma_cid13_p5	gamma_cid14_p0
0	-0.03672948420180198	0.05663678946967763	0.9203432642578638	0.3085816938045678	-0.2956135417872398	-0.3010175814998967	-0.3879492264334186	0.2499269421184955	0.2499269421184919	-0.1745323135458445	-0.1739541523671565	-0.0008036623358878681	0.0004579529011912813	0	0	0	0	0	0	0	0	0	0	0	0	0	0.07993181112501811	-0.04905004233376888	-0.02044982990628018	-0.2479601541212757	0.191409834057933	-0.01694732875360726	-0.005558946567171361	18.10358725295018	1.642230438936328	2.194519130425227	12.4225772112305	-617.6548129201335	-72.4770734822258	-23.17726354277279	-1.091784286112174	-2.19169816619602	-0.9680347749225305	9.701587154348832	-0.9078566958157508	3.377122703591899	-7.757433017729951	9.609643911082904	9.609643911084591	1.201204458713931	-0.1314607593056857	1.495833186681788	-0.4648600375038933	1.351962860135096e-08	1.643462446871015e-07	1.249815932021512e-07	-4.959197315414675e-08	2.647287459822858e-07	-1.045189979700235e-08	-7.077340549931076e-09
0.01	-0.03677958462808322	0.0565307258022564	0.9202963332709088	0.3090508768726993	-0.2956583165924124	-0.3008489420054855	-0.3883298974116941	0.2503964707554176	0.250396470755388	-0.1744747953842498	-0.1739572064949839	-0.0007286604223132147	0.0004354246392038211	-0.00990844797082548	-0.0208798023568783	-0.009307317814968987	0.09296669971949713	-0.008832557186039614	0.03348880950236269	-0.07505261006847619	0.09333386016990106	0.09333386016991223	0.01156065370756997	-0.0005965100625042389	0.01520507141526261	-0.00430578278464167	0.07002978133890456	-0.05569339685427351	-0.01956454851261907	-0.2425202538870961	0.186701484556203	-0.005617726016854245	0.004783690049637641	16.82063504140645	-2.985166564064016	2.854107693135018	9.349572444109228	-623.2589693364101	-81.19793709244068	-23.18281464652866	-0.9236446251731487	-1.986191520028664	-0.9001954026406187	8.963714586608633	-0.8526401947389198	3.298885760788453	-7.216937163210489	9.109478403580246	9.109478403580635	1.142089172344047	-0.02158253845608196	1.563554275865592	-0.383498274766026	-2.668336588032711e-08	1.542095388451482e-07	1.598733195794232e-07	7.142118125286307e-09	4.597392617191405e-08	-4.952463932310015e-08	-8.963522537862669e-09
0.02	-0.03692542344859949	0.05622585006134695	0.9201587060822326	0.3104236275792108	-0.2957877539623966	-0.3003525892786104	-0.3894286469230139	0.2517821822607459	0.251782182260746	-0.1742999520164311	-0.1739657930052132	-0.0004954657632029095	0.0003758263742055993	-0.01914767884585437	-0.03976241469764824	-0.01813924034418962	0.1807135276733232	-0.01693251296172293	0.06554264649392505	-0.143615706609094	0.183236573685264	0.1832365736852706	0.02346504123776069	-0.001106476474337293	0.03163854910720798	-0.007414000602153632	0.06012775155294739	-0.0623367513747535	-0.01867926711875546	-0.2370803536528511	0.1819931350545094	0.005711876719934251	0.01512632666653631	15.61109429309575	-7.624313987069761	3.514309340723841	6.16364709278606	-627.7635069594986	-89.82845990441507	-23.19899165803104	-0.9579408669527327	-1.792260162974457	-0.8729557177728651	8.657612801214622	-0.761336413744529	3.090128201431837	-6.459530312158189	8.923414580175296	8.923414580173844	1.269951223238009	-0.1141520291714701	1.741514442018206	-0.2253470440780391	-6.688636036200517e-08	1.440728330031949e-07	1.947650459566952e-07	6.387620940471936e-08	-1.727808936384576e-07	-8.859737884919795e-08	-1.084970452579426e-08
0.03	-0.03716129606457764	0.05573932989540032	0.9199342915666479	0.3126537997353548	-0.2959953779729034	-0.299542039942653	-0.3911885349321939	0.2540522036726619	0.2540522036726826	-0.1740056520381911	-0.1739794460476315	-9.485866267505607e-05	0.000289172487228973	-0.0279840251138661	-0.05748757658965131	-0.02674314251161482	0.2650004711354269	-0.02456446216325433	0.09645280442909406	-0.2081067754195036	0.2704065591469699	0.2704065591469674	0.0352895174823358	-0.001604726116576732	0.04837159890065646	-0.009926635000583143	0.05535138163246502	-0.05690769041084697	-0.01800797241955944	-0.2325829942989693	0.1772232433055692	0.003759316510824331	0.01903221992234339	13.99163601834884	-6.563372480060111	3.425820783840866	7.011499586122204	-628.2009064045686	-86.96412895521293	-23.22496081551845	-0.8400630127185539	-1.754524912848666	-0.8540648671011379	8.266161566322829	-0.7599961169925441	3.074274085370294	-6.40562719415332	8.559620273822448	8.559620273822082	1.122923801880368	-0.01472146437148223	1.622508705047799	-0.2657450233617697	-8.726876337850696e-08	1.130014742853377e-07	2.743870940879114e-07	7.432522710736512e-08	-2.387091670705487e-07	-1.417425085628497e-07	-2.351249396801338e-08
